<?xml version="1.0" encoding="utf-8"?>
<!-- Generator: Adobe Illustrator 23.0.1, SVG Export Plug-In . SVG Version: 6.00 Build 0)  -->
<svg version="1.1" id="Layer_1" xmlns="http://www.w3.org/2000/svg" xmlns:xlink="http://www.w3.org/1999/xlink" x="0px" y="0px"
	 viewBox="0 0 512 512" style="enable-background:new 0 0 512 512;" xml:space="preserve">
<path d="M260.6,368.1l111.3-111.3c8.3-8.3,12.8-19.2,12.8-30.9c0-11.7-4.5-22.6-12.8-30.9l-56.5-56.5c-17-17-44.7-17-61.8,0
	L114.3,277.8c-8.3,8.3-12.8,19.2-12.8,30.9c0,11.7,4.5,22.6,12.8,30.9l46.6,46.6h249.5v-18.1H260.6z M266.4,151.4
	c10-10,26.2-10,36.2,0l56.5,56.5c4.8,4.8,7.5,11.3,7.5,18.1s-2.7,13.3-7.5,18.1l-63.3,63.3L203,214.7L266.4,151.4z M235,368.1h-66.6
	l-41.3-41.3c-4.8-4.8-7.5-11.3-7.5-18.1c0-6.8,2.7-13.3,7.5-18.1l63.1-63.1l92.7,92.7L235,368.1z"/>
</svg>
